<svg xmlns="http://www.w3.org/2000/svg" viewBox="0 0 128 128">
  <!-- Shield body -->
  <path d="M64 8 L116 32 L116 68 C116 96 92 118 64 124 C36 118 12 96 12 68 L12 32 Z" fill="#88171A"/>
  <!-- Shield inner highlight -->
  <path d="M64 16 L108 36 L108 68 C108 92 88 112 64 117 C40 112 20 92 20 68 L20 36 Z" fill="#A41E22"/>
  <!-- WireGuard-style tunnel lines -->
  <g stroke="#fff" stroke-width="3.5" stroke-linecap="round" fill="none" opacity="0.9">
    <!-- Top tunnel arc -->
    <path d="M38 52 C38 38, 90 38, 90 52"/>
    <!-- Middle tunnel arc -->
    <path d="M42 64 C42 52, 86 52, 86 64"/>
    <!-- Bottom tunnel arc -->
    <path d="M46 76 C46 66, 82 66, 82 76"/>
  </g>
  <!-- Central node dot -->
  <circle cx="64" cy="84" r="6" fill="#fff"/>
  <!-- Connection lines from arcs to node -->
  <g stroke="#fff" stroke-width="2.5" stroke-linecap="round" opacity="0.7">
    <line x1="58" y1="76" x2="61" y2="80"/>
    <line x1="70" y1="76" x2="67" y2="80"/>
  </g>
</svg>
